<mxfile host="app.diagrams.net" modified="2022-10-19T13:29:04.482Z" agent="5.0 (Macintosh; Intel Mac OS X 10_15_7) AppleWebKit/537.36 (KHTML, like Gecko) Chrome/99.0.4844.84 Safari/537.36" etag="4vataSyIOJe_0embJr5Y" version="20.4.1" type="github">
  <diagram id="kbSdvPudLcJXdEKSjWj3" name="第 1 页">
    <mxGraphModel dx="1178" dy="769" grid="1" gridSize="10" guides="1" tooltips="1" connect="1" arrows="1" fold="1" page="1" pageScale="1" pageWidth="827" pageHeight="1169" math="0" shadow="0">
      <root>
        <mxCell id="0" />
        <mxCell id="1" parent="0" />
        <mxCell id="FoAXJZJZyae9qx9strcY-3" value="" style="edgeStyle=orthogonalEdgeStyle;rounded=0;orthogonalLoop=1;jettySize=auto;html=1;fillColor=#ffe6cc;strokeColor=#d79b00;" parent="1" source="FoAXJZJZyae9qx9strcY-1" target="FoAXJZJZyae9qx9strcY-2" edge="1">
          <mxGeometry relative="1" as="geometry" />
        </mxCell>
        <mxCell id="FoAXJZJZyae9qx9strcY-1" value="cms后台" style="rounded=1;whiteSpace=wrap;html=1;fillColor=#ffe6cc;strokeColor=#d79b00;" parent="1" vertex="1">
          <mxGeometry x="117" y="50" width="120" height="60" as="geometry" />
        </mxCell>
        <mxCell id="FoAXJZJZyae9qx9strcY-5" value="" style="edgeStyle=orthogonalEdgeStyle;rounded=0;orthogonalLoop=1;jettySize=auto;html=1;fillColor=#ffe6cc;strokeColor=#d79b00;" parent="1" source="FoAXJZJZyae9qx9strcY-2" target="FoAXJZJZyae9qx9strcY-4" edge="1">
          <mxGeometry relative="1" as="geometry" />
        </mxCell>
        <mxCell id="FoAXJZJZyae9qx9strcY-2" value="文件写入" style="whiteSpace=wrap;html=1;rounded=1;fillColor=#ffe6cc;strokeColor=#d79b00;" parent="1" vertex="1">
          <mxGeometry x="117" y="150" width="120" height="60" as="geometry" />
        </mxCell>
        <mxCell id="FoAXJZJZyae9qx9strcY-40" value="" style="edgeStyle=orthogonalEdgeStyle;rounded=0;orthogonalLoop=1;jettySize=auto;html=1;fillColor=#ffe6cc;strokeColor=#d79b00;" parent="1" source="FoAXJZJZyae9qx9strcY-4" target="FoAXJZJZyae9qx9strcY-39" edge="1">
          <mxGeometry relative="1" as="geometry" />
        </mxCell>
        <mxCell id="FoAXJZJZyae9qx9strcY-4" value="启用oss存储" style="whiteSpace=wrap;html=1;rounded=1;fillColor=#ffe6cc;strokeColor=#d79b00;" parent="1" vertex="1">
          <mxGeometry x="117" y="267" width="120" height="60" as="geometry" />
        </mxCell>
        <mxCell id="FoAXJZJZyae9qx9strcY-10" value="" style="edgeStyle=orthogonalEdgeStyle;rounded=0;orthogonalLoop=1;jettySize=auto;html=1;fillColor=#dae8fc;strokeColor=#6c8ebf;" parent="1" source="FoAXJZJZyae9qx9strcY-8" target="FoAXJZJZyae9qx9strcY-9" edge="1">
          <mxGeometry relative="1" as="geometry" />
        </mxCell>
        <mxCell id="FoAXJZJZyae9qx9strcY-8" value="cms前台" style="rounded=1;whiteSpace=wrap;html=1;fillColor=#dae8fc;strokeColor=#6c8ebf;" parent="1" vertex="1">
          <mxGeometry x="450" y="50" width="120" height="60" as="geometry" />
        </mxCell>
        <mxCell id="FoAXJZJZyae9qx9strcY-12" value="" style="edgeStyle=orthogonalEdgeStyle;rounded=0;orthogonalLoop=1;jettySize=auto;html=1;fillColor=#dae8fc;strokeColor=#6c8ebf;startArrow=none;" parent="1" source="FoAXJZJZyae9qx9strcY-36" target="FoAXJZJZyae9qx9strcY-11" edge="1">
          <mxGeometry relative="1" as="geometry" />
        </mxCell>
        <mxCell id="FoAXJZJZyae9qx9strcY-37" value="" style="edgeStyle=orthogonalEdgeStyle;rounded=0;orthogonalLoop=1;jettySize=auto;html=1;fillColor=#dae8fc;strokeColor=#6c8ebf;" parent="1" source="FoAXJZJZyae9qx9strcY-9" target="FoAXJZJZyae9qx9strcY-36" edge="1">
          <mxGeometry relative="1" as="geometry" />
        </mxCell>
        <mxCell id="FoAXJZJZyae9qx9strcY-9" value="文件读取" style="rounded=1;whiteSpace=wrap;html=1;fillColor=#dae8fc;strokeColor=#6c8ebf;" parent="1" vertex="1">
          <mxGeometry x="450" y="130" width="120" height="60" as="geometry" />
        </mxCell>
        <mxCell id="tBiG_TGfqT5cRCIjuWkr-3" style="edgeStyle=orthogonalEdgeStyle;rounded=0;orthogonalLoop=1;jettySize=auto;html=1;exitX=0.5;exitY=1;exitDx=0;exitDy=0;entryX=0;entryY=0.5;entryDx=0;entryDy=0;fillColor=#dae8fc;strokeColor=#6c8ebf;" edge="1" parent="1" source="FoAXJZJZyae9qx9strcY-11" target="FoAXJZJZyae9qx9strcY-13">
          <mxGeometry relative="1" as="geometry" />
        </mxCell>
        <mxCell id="FoAXJZJZyae9qx9strcY-11" value="OSS" style="rounded=1;whiteSpace=wrap;html=1;fillColor=#dae8fc;strokeColor=#6c8ebf;" parent="1" vertex="1">
          <mxGeometry x="290" y="370" width="120" height="60" as="geometry" />
        </mxCell>
        <mxCell id="FoAXJZJZyae9qx9strcY-21" value="" style="edgeStyle=orthogonalEdgeStyle;rounded=0;orthogonalLoop=1;jettySize=auto;html=1;fillColor=#dae8fc;strokeColor=#6c8ebf;" parent="1" source="FoAXJZJZyae9qx9strcY-13" target="FoAXJZJZyae9qx9strcY-20" edge="1">
          <mxGeometry relative="1" as="geometry" />
        </mxCell>
        <mxCell id="FoAXJZJZyae9qx9strcY-13" value="返回数据流" style="rounded=1;whiteSpace=wrap;html=1;fillColor=#dae8fc;strokeColor=#6c8ebf;" parent="1" vertex="1">
          <mxGeometry x="450" y="525" width="120" height="60" as="geometry" />
        </mxCell>
        <mxCell id="FoAXJZJZyae9qx9strcY-18" style="edgeStyle=orthogonalEdgeStyle;rounded=0;orthogonalLoop=1;jettySize=auto;html=1;exitX=0.5;exitY=1;exitDx=0;exitDy=0;entryX=0.5;entryY=0;entryDx=0;entryDy=0;fillColor=#dae8fc;strokeColor=#6c8ebf;" parent="1" source="FoAXJZJZyae9qx9strcY-16" target="FoAXJZJZyae9qx9strcY-13" edge="1">
          <mxGeometry relative="1" as="geometry" />
        </mxCell>
        <mxCell id="FoAXJZJZyae9qx9strcY-16" value="JRSS" style="rounded=1;whiteSpace=wrap;html=1;fillColor=#dae8fc;strokeColor=#6c8ebf;" parent="1" vertex="1">
          <mxGeometry x="450" y="370" width="120" height="60" as="geometry" />
        </mxCell>
        <mxCell id="FoAXJZJZyae9qx9strcY-20" value="在浏览器展示" style="rounded=1;whiteSpace=wrap;html=1;fillColor=#dae8fc;strokeColor=#6c8ebf;" parent="1" vertex="1">
          <mxGeometry x="450" y="625" width="120" height="60" as="geometry" />
        </mxCell>
        <mxCell id="FoAXJZJZyae9qx9strcY-32" value="" style="edgeStyle=orthogonalEdgeStyle;rounded=0;orthogonalLoop=1;jettySize=auto;html=1;fillColor=#ffe6cc;strokeColor=#d79b00;" parent="1" source="FoAXJZJZyae9qx9strcY-22" target="FoAXJZJZyae9qx9strcY-31" edge="1">
          <mxGeometry relative="1" as="geometry" />
        </mxCell>
        <mxCell id="FoAXJZJZyae9qx9strcY-22" value="生成文件id" style="whiteSpace=wrap;html=1;rounded=1;fillColor=#ffe6cc;strokeColor=#d79b00;" parent="1" vertex="1">
          <mxGeometry x="117" y="500" width="120" height="60" as="geometry" />
        </mxCell>
        <mxCell id="FoAXJZJZyae9qx9strcY-27" style="edgeStyle=orthogonalEdgeStyle;rounded=0;orthogonalLoop=1;jettySize=auto;html=1;exitX=0.5;exitY=1;exitDx=0;exitDy=0;entryX=1;entryY=0.5;entryDx=0;entryDy=0;fillColor=#dae8fc;strokeColor=#6c8ebf;" parent="1" source="FoAXJZJZyae9qx9strcY-24" target="FoAXJZJZyae9qx9strcY-13" edge="1">
          <mxGeometry relative="1" as="geometry" />
        </mxCell>
        <mxCell id="FoAXJZJZyae9qx9strcY-24" value="HSP" style="rounded=1;whiteSpace=wrap;html=1;fillColor=#dae8fc;strokeColor=#6c8ebf;" parent="1" vertex="1">
          <mxGeometry x="610" y="370" width="120" height="60" as="geometry" />
        </mxCell>
        <mxCell id="FoAXJZJZyae9qx9strcY-31" value="存储mongo" style="whiteSpace=wrap;html=1;rounded=1;fillColor=#ffe6cc;strokeColor=#d79b00;" parent="1" vertex="1">
          <mxGeometry x="117" y="610" width="120" height="60" as="geometry" />
        </mxCell>
        <mxCell id="tBiG_TGfqT5cRCIjuWkr-1" style="edgeStyle=orthogonalEdgeStyle;rounded=0;orthogonalLoop=1;jettySize=auto;html=1;exitX=0.5;exitY=1;exitDx=0;exitDy=0;fillColor=#dae8fc;strokeColor=#6c8ebf;" edge="1" parent="1" source="FoAXJZJZyae9qx9strcY-36" target="FoAXJZJZyae9qx9strcY-16">
          <mxGeometry relative="1" as="geometry" />
        </mxCell>
        <mxCell id="tBiG_TGfqT5cRCIjuWkr-4" style="edgeStyle=orthogonalEdgeStyle;rounded=0;orthogonalLoop=1;jettySize=auto;html=1;exitX=1;exitY=0.5;exitDx=0;exitDy=0;entryX=0.5;entryY=0;entryDx=0;entryDy=0;fillColor=#dae8fc;strokeColor=#6c8ebf;" edge="1" parent="1" source="FoAXJZJZyae9qx9strcY-36" target="FoAXJZJZyae9qx9strcY-24">
          <mxGeometry relative="1" as="geometry" />
        </mxCell>
        <mxCell id="FoAXJZJZyae9qx9strcY-36" value="数据库查询&lt;br&gt;storageService&lt;br&gt;字段" style="rounded=1;whiteSpace=wrap;html=1;fillColor=#dae8fc;strokeColor=#6c8ebf;" parent="1" vertex="1">
          <mxGeometry x="450" y="231" width="120" height="60" as="geometry" />
        </mxCell>
        <mxCell id="FoAXJZJZyae9qx9strcY-38" value="" style="edgeStyle=orthogonalEdgeStyle;rounded=0;orthogonalLoop=1;jettySize=auto;html=1;fillColor=#dae8fc;strokeColor=#6c8ebf;endArrow=none;" parent="1" source="FoAXJZJZyae9qx9strcY-9" target="FoAXJZJZyae9qx9strcY-36" edge="1">
          <mxGeometry relative="1" as="geometry">
            <mxPoint x="510" y="190" as="sourcePoint" />
            <mxPoint x="510" y="334" as="targetPoint" />
          </mxGeometry>
        </mxCell>
        <mxCell id="FoAXJZJZyae9qx9strcY-45" style="edgeStyle=orthogonalEdgeStyle;rounded=0;orthogonalLoop=1;jettySize=auto;html=1;exitX=0.5;exitY=1;exitDx=0;exitDy=0;entryX=0.5;entryY=0;entryDx=0;entryDy=0;fillColor=#ffe6cc;strokeColor=#d79b00;" parent="1" source="FoAXJZJZyae9qx9strcY-39" target="FoAXJZJZyae9qx9strcY-22" edge="1">
          <mxGeometry relative="1" as="geometry" />
        </mxCell>
        <mxCell id="FoAXJZJZyae9qx9strcY-39" value="storageService&lt;br&gt;值为oss" style="whiteSpace=wrap;html=1;rounded=1;fillColor=#ffe6cc;strokeColor=#d79b00;" parent="1" vertex="1">
          <mxGeometry x="117" y="380" width="120" height="60" as="geometry" />
        </mxCell>
      </root>
    </mxGraphModel>
  </diagram>
</mxfile>
